<svg
  width="24"
  height="24"
  viewBox="0 0 24 24"
  fill="none"
  xmlns="http://www.w3.org/2000/svg"
>
  <g>
    <path
      d="M14.0852 1.73479L16.2003 5.99343C16.4853 6.58239 17.2504 7.14114 17.8954 7.26196L21.7207 7.89622C24.1658 8.30396 24.7359 10.086 22.9808 11.868L19.9956 14.8732C19.5005 15.3716 19.2155 16.3532 19.3805 17.0629L20.2356 20.7779C20.9106 23.7076 19.3505 24.8553 16.7854 23.315L13.2001 21.1705C12.5551 20.7779 11.475 20.7779 10.83 21.1705L7.24473 23.315C4.67949 24.8402 3.11938 23.7076 3.79443 20.7779L4.64948 17.0629C4.78449 16.3381 4.49947 15.3565 4.00444 14.8581L1.01925 11.8529C-0.735867 10.086 -0.16583 8.30396 2.27933 7.88112L6.10465 7.24686C6.7497 7.14114 7.51475 6.56729 7.79976 5.97833L9.9149 1.71969C11.07 -0.575741 12.9301 -0.575742 14.0852 1.73479Z"
      fill="black"
    />
  </g>
</svg>
